<?xml version="1.0" encoding="UTF-8" standalone="no"?>
<!DOCTYPE svg PUBLIC "-//W3C//DTD SVG 1.1//EN"
 "http://www.w3.org/Graphics/SVG/1.1/DTD/svg11.dtd">
<!-- Generated by graphviz version 7.0.2 (20221119.0110)
 -->
<!-- Pages: 1 -->
<svg width="209pt" height="653pt"
 viewBox="0.00 0.00 209.00 653.00" xmlns="http://www.w3.org/2000/svg" xmlns:xlink="http://www.w3.org/1999/xlink">
<g id="graph0" class="graph" transform="scale(1 1) rotate(0) translate(4 649)">
<polygon fill="white" stroke="none" points="-4,4 -4,-649 205,-649 205,4 -4,4"/>
<!-- 0 -->
<g id="node1" class="node">
<title>0</title>
<ellipse fill="none" stroke="black" cx="100" cy="-627" rx="27" ry="18"/>
<text text-anchor="middle" x="100" y="-623.3" font-family="Times,serif" font-size="14.00">0</text>
</g>
<!-- 1 -->
<g id="node2" class="node">
<title>1</title>
<ellipse fill="none" stroke="black" cx="27" cy="-540" rx="27" ry="18"/>
<text text-anchor="middle" x="27" y="-536.3" font-family="Times,serif" font-size="14.00">1</text>
</g>
<!-- 0&#45;&gt;1 -->
<g id="edge3" class="edge">
<title>0&#45;&gt;1</title>
<path fill="none" stroke="black" d="M74.36,-621.01C57.74,-616.3 37.33,-607.41 27,-591 22.99,-584.64 21.7,-576.85 21.74,-569.34"/>
<polygon fill="black" stroke="black" points="25.22,-569.77 22.58,-559.51 18.24,-569.18 25.22,-569.77"/>
<text text-anchor="middle" x="32" y="-579.8" font-family="Times,serif" font-size="14.00">()</text>
</g>
<!-- 3 -->
<g id="node4" class="node">
<title>3</title>
<ellipse fill="none" stroke="black" cx="71" cy="-366" rx="27" ry="18"/>
<text text-anchor="middle" x="71" y="-362.3" font-family="Times,serif" font-size="14.00">3</text>
</g>
<!-- 0&#45;&gt;3 -->
<g id="edge1" class="edge">
<title>0&#45;&gt;3</title>
<path fill="none" stroke="black" d="M98.05,-608.6C93.14,-564.74 80.21,-449.29 74.18,-395.43"/>
<polygon fill="black" stroke="black" points="77.7,-395.37 73.11,-385.82 70.74,-396.15 77.7,-395.37"/>
<text text-anchor="middle" x="91" y="-492.8" font-family="Times,serif" font-size="14.00">()</text>
</g>
<!-- 8 -->
<g id="node9" class="node">
<title>8</title>
<ellipse fill="none" stroke="black" cx="139" cy="-540" rx="27" ry="18"/>
<text text-anchor="middle" x="139" y="-536.3" font-family="Times,serif" font-size="14.00">8</text>
</g>
<!-- 0&#45;&gt;8 -->
<g id="edge2" class="edge">
<title>0&#45;&gt;8</title>
<path fill="none" stroke="black" d="M105.2,-609C108.44,-599.17 112.94,-586.67 118,-576 119.42,-573 121.03,-569.92 122.7,-566.9"/>
<polygon fill="black" stroke="black" points="125.69,-568.72 127.73,-558.32 119.65,-565.18 125.69,-568.72"/>
<text text-anchor="middle" x="123" y="-579.8" font-family="Times,serif" font-size="14.00">()</text>
</g>
<!-- 1&#45;&gt;0 -->
<g id="edge5" class="edge">
<title>1&#45;&gt;0</title>
<path fill="none" stroke="black" d="M36.1,-557.09C42.22,-567.29 50.83,-580.5 60,-591 64.25,-595.87 69.16,-600.69 74.06,-605.13"/>
<polygon fill="black" stroke="black" points="71.73,-607.73 81.58,-611.64 76.31,-602.44 71.73,-607.73"/>
<text text-anchor="middle" x="65" y="-579.8" font-family="Times,serif" font-size="14.00">()</text>
</g>
<!-- 2 -->
<g id="node3" class="node">
<title>2</title>
<ellipse fill="none" stroke="black" cx="28" cy="-453" rx="27" ry="18"/>
<text text-anchor="middle" x="28" y="-449.3" font-family="Times,serif" font-size="14.00">2</text>
</g>
<!-- 1&#45;&gt;2 -->
<g id="edge4" class="edge">
<title>1&#45;&gt;2</title>
<path fill="none" stroke="black" d="M15.73,-523.51C10,-513.77 4.85,-500.85 8,-489 8.84,-485.83 10.05,-482.65 11.45,-479.56"/>
<polygon fill="black" stroke="black" points="14.43,-481.42 16.06,-470.95 8.26,-478.12 14.43,-481.42"/>
<text text-anchor="middle" x="13" y="-492.8" font-family="Times,serif" font-size="14.00">()</text>
</g>
<!-- 2&#45;&gt;1 -->
<g id="edge7" class="edge">
<title>2&#45;&gt;1</title>
<path fill="none" stroke="black" d="M27.79,-471.47C27.66,-482.74 27.49,-497.67 27.33,-510.62"/>
<polygon fill="black" stroke="black" points="23.84,-510.25 27.22,-520.29 30.84,-510.33 23.84,-510.25"/>
<text text-anchor="middle" x="33" y="-492.8" font-family="Times,serif" font-size="14.00">()</text>
</g>
<!-- 2&#45;&gt;3 -->
<g id="edge6" class="edge">
<title>2&#45;&gt;3</title>
<path fill="none" stroke="black" d="M23.95,-434.97C22.43,-424.9 22.1,-412.17 27,-402 30.23,-395.31 35.43,-389.5 41.14,-384.64"/>
<polygon fill="black" stroke="black" points="43.18,-387.49 49.11,-378.71 39,-381.87 43.18,-387.49"/>
<text text-anchor="middle" x="32" y="-405.8" font-family="Times,serif" font-size="14.00">()</text>
</g>
<!-- 3&#45;&gt;0 -->
<g id="edge9" class="edge">
<title>3&#45;&gt;0</title>
<path fill="none" stroke="black" d="M94.66,-374.8C119.76,-384.49 158.06,-403.69 175,-435 201.01,-483.08 193.84,-506.68 175,-558 166.98,-579.86 147.17,-597.3 129.93,-609.05"/>
<polygon fill="black" stroke="black" points="128.5,-605.81 121.98,-614.16 132.29,-611.7 128.5,-605.81"/>
<text text-anchor="middle" x="196" y="-492.8" font-family="Times,serif" font-size="14.00">()</text>
</g>
<!-- 3&#45;&gt;2 -->
<g id="edge8" class="edge">
<title>3&#45;&gt;2</title>
<path fill="none" stroke="black" d="M62.73,-383.34C56.67,-395.32 48.32,-411.84 41.32,-425.68"/>
<polygon fill="black" stroke="black" points="38.37,-423.76 36.97,-434.26 44.61,-426.92 38.37,-423.76"/>
<text text-anchor="middle" x="57" y="-405.8" font-family="Times,serif" font-size="14.00">()</text>
</g>
<!-- 4 -->
<g id="node5" class="node">
<title>4</title>
<ellipse fill="none" stroke="black" cx="71" cy="-279" rx="27" ry="18"/>
<text text-anchor="middle" x="71" y="-275.3" font-family="Times,serif" font-size="14.00">4</text>
</g>
<!-- 3&#45;&gt;4 -->
<g id="edge10" class="edge">
<title>3&#45;&gt;4</title>
<path fill="none" stroke="black" d="M62.4,-348.71C59.81,-342.96 57.3,-336.35 56,-330 54.43,-322.34 55.62,-314.16 57.89,-306.68"/>
<polygon fill="black" stroke="black" points="61.12,-308.03 61.42,-297.44 54.58,-305.54 61.12,-308.03"/>
<text text-anchor="middle" x="61" y="-318.8" font-family="Times,serif" font-size="14.00">()</text>
</g>
<!-- 4&#45;&gt;3 -->
<g id="edge12" class="edge">
<title>4&#45;&gt;3</title>
<path fill="none" stroke="black" d="M71,-297.47C71,-308.74 71,-323.67 71,-336.62"/>
<polygon fill="black" stroke="black" points="67.5,-336.29 71,-346.29 74.5,-336.29 67.5,-336.29"/>
<text text-anchor="middle" x="76" y="-318.8" font-family="Times,serif" font-size="14.00">()</text>
</g>
<!-- 5 -->
<g id="node6" class="node">
<title>5</title>
<ellipse fill="none" stroke="black" cx="71" cy="-192" rx="27" ry="18"/>
<text text-anchor="middle" x="71" y="-188.3" font-family="Times,serif" font-size="14.00">5</text>
</g>
<!-- 4&#45;&gt;5 -->
<g id="edge11" class="edge">
<title>4&#45;&gt;5</title>
<path fill="none" stroke="black" d="M62.4,-261.71C59.81,-255.96 57.3,-249.35 56,-243 54.43,-235.34 55.62,-227.16 57.89,-219.68"/>
<polygon fill="black" stroke="black" points="61.12,-221.03 61.42,-210.44 54.58,-218.54 61.12,-221.03"/>
<text text-anchor="middle" x="61" y="-231.8" font-family="Times,serif" font-size="14.00">()</text>
</g>
<!-- 5&#45;&gt;4 -->
<g id="edge13" class="edge">
<title>5&#45;&gt;4</title>
<path fill="none" stroke="black" d="M71,-210.47C71,-221.74 71,-236.67 71,-249.62"/>
<polygon fill="black" stroke="black" points="67.5,-249.29 71,-259.29 74.5,-249.29 67.5,-249.29"/>
<text text-anchor="middle" x="76" y="-231.8" font-family="Times,serif" font-size="14.00">()</text>
</g>
<!-- 6 -->
<g id="node7" class="node">
<title>6</title>
<ellipse fill="none" stroke="black" cx="71" cy="-105" rx="27" ry="18"/>
<text text-anchor="middle" x="71" y="-101.3" font-family="Times,serif" font-size="14.00">6</text>
</g>
<!-- 5&#45;&gt;6 -->
<g id="edge14" class="edge">
<title>5&#45;&gt;6</title>
<path fill="none" stroke="black" d="M62.4,-174.71C59.81,-168.96 57.3,-162.35 56,-156 54.43,-148.34 55.62,-140.16 57.89,-132.68"/>
<polygon fill="black" stroke="black" points="61.12,-134.03 61.42,-123.44 54.58,-131.54 61.12,-134.03"/>
<text text-anchor="middle" x="61" y="-144.8" font-family="Times,serif" font-size="14.00">()</text>
</g>
<!-- 6&#45;&gt;5 -->
<g id="edge15" class="edge">
<title>6&#45;&gt;5</title>
<path fill="none" stroke="black" d="M71,-123.47C71,-134.74 71,-149.67 71,-162.62"/>
<polygon fill="black" stroke="black" points="67.5,-162.29 71,-172.29 74.5,-162.29 67.5,-162.29"/>
<text text-anchor="middle" x="76" y="-144.8" font-family="Times,serif" font-size="14.00">()</text>
</g>
<!-- 7 -->
<g id="node8" class="node">
<title>7</title>
<ellipse fill="none" stroke="black" cx="71" cy="-18" rx="27" ry="18"/>
<text text-anchor="middle" x="71" y="-14.3" font-family="Times,serif" font-size="14.00">7</text>
</g>
<!-- 6&#45;&gt;7 -->
<g id="edge16" class="edge">
<title>6&#45;&gt;7</title>
<path fill="none" stroke="black" d="M62.4,-87.71C59.81,-81.96 57.3,-75.35 56,-69 54.43,-61.34 55.62,-53.16 57.89,-45.68"/>
<polygon fill="black" stroke="black" points="61.12,-47.03 61.42,-36.44 54.58,-44.54 61.12,-47.03"/>
<text text-anchor="middle" x="61" y="-57.8" font-family="Times,serif" font-size="14.00">()</text>
</g>
<!-- 7&#45;&gt;6 -->
<g id="edge17" class="edge">
<title>7&#45;&gt;6</title>
<path fill="none" stroke="black" d="M71,-36.47C71,-47.74 71,-62.67 71,-75.62"/>
<polygon fill="black" stroke="black" points="67.5,-75.29 71,-85.29 74.5,-75.29 67.5,-75.29"/>
<text text-anchor="middle" x="76" y="-57.8" font-family="Times,serif" font-size="14.00">()</text>
</g>
<!-- 8&#45;&gt;0 -->
<g id="edge18" class="edge">
<title>8&#45;&gt;0</title>
<path fill="none" stroke="black" d="M137.18,-558.3C135.65,-568.23 132.9,-580.73 128,-591 126.15,-594.88 123.79,-598.71 121.23,-602.34"/>
<polygon fill="black" stroke="black" points="118.52,-600.13 115.13,-610.17 124.04,-604.43 118.52,-600.13"/>
<text text-anchor="middle" x="138" y="-579.8" font-family="Times,serif" font-size="14.00">()</text>
</g>
<!-- 9 -->
<g id="node10" class="node">
<title>9</title>
<ellipse fill="none" stroke="black" cx="139" cy="-453" rx="27" ry="18"/>
<text text-anchor="middle" x="139" y="-449.3" font-family="Times,serif" font-size="14.00">9</text>
</g>
<!-- 8&#45;&gt;9 -->
<g id="edge19" class="edge">
<title>8&#45;&gt;9</title>
<path fill="none" stroke="black" d="M129.83,-522.77C127.06,-517.03 124.39,-510.4 123,-504 121.33,-496.31 122.6,-488.12 125.03,-480.65"/>
<polygon fill="black" stroke="black" points="128.26,-481.98 128.79,-471.4 121.78,-479.35 128.26,-481.98"/>
<text text-anchor="middle" x="128" y="-492.8" font-family="Times,serif" font-size="14.00">()</text>
</g>
<!-- 9&#45;&gt;8 -->
<g id="edge20" class="edge">
<title>9&#45;&gt;8</title>
<path fill="none" stroke="black" d="M139,-471.47C139,-482.74 139,-497.67 139,-510.62"/>
<polygon fill="black" stroke="black" points="135.5,-510.29 139,-520.29 142.5,-510.29 135.5,-510.29"/>
<text text-anchor="middle" x="144" y="-492.8" font-family="Times,serif" font-size="14.00">()</text>
</g>
</g>
</svg>
